<?xml version="1.0" encoding="UTF-8"?>
<svg xmlns="http://www.w3.org/2000/svg" id="Layer_1" enable-background="new 0 0 480 480" height="512px" viewBox="0 0 480 480" width="512px"><g><path d="m467.5 84v113c0 17.645-14.355 32-32 32h-65.839c-11.147 21.789-34.426 34-55.162 34-5.94 0-9.809-6.264-7.156-11.574 3.562-7.133 6.185-14.665 7.811-22.426h-58.654c-17.645 0-32-14.355-32-32v-113c0-17.645 14.355-32 32-32h8v-12c0-13.233-10.767-24-24-24h-152.404l7.682 13.828c2.115 3.807 6.135 6.172 10.49 6.172h80.464c4.418 0 8 3.582 8 8s-3.582 8-8 8h-80.464c-10.162 0-19.541-5.519-24.476-14.402l-11.999-21.598h-17.293c-13.233 0-24 10.767-24 24v400c0 13.233 10.767 24 24 24h188c13.233 0 24-10.767 24-24v-166c0-4.418 3.582-8 8-8s8 3.582 8 8v166c0 22.056-17.944 40-40 40h-188c-22.056 0-40-17.944-40-40v-400c0-22.056 17.944-40 40-40h188c22.056 0 40 17.944 40 40v20c0 4.418-3.582 8-8 8h-16c-8.822 0-16 7.178-16 16v113c0 8.822 7.178 16 16 16h68.009c4.764 0 8.468 4.142 7.953 8.869-.83 7.576-2.437 15.163-5.063 22.924 13.52-4.099 24.313-13.529 29.727-26.812 1.227-3.012 4.155-4.981 7.408-4.981h70.966c8.822 0 16-7.178 16-16v-113c0-8.822-7.178-16-16-16h-115.667c-4.418 0-8-3.582-8-8s3.582-8 8-8h115.667c17.645 0 32 14.355 32 32zm-402 272.844c0 4.418 3.582 8 8 8s8-3.582 8-8c0-32.477 26.421-58.898 58.898-58.898h12.204c32.477 0 58.898 26.421 58.898 58.898 0 4.418 3.582 8 8 8s8-3.582 8-8c0-41.299-33.599-74.898-74.898-74.898h-12.204c-41.299 0-74.898 33.599-74.898 74.898zm29.928-139.437c0-26.088 20.293-50.251 52.012-50.251 27.709 0 50.251 22.542 50.251 50.251s-22.542 50.251-50.251 50.251c-31.867.001-52.012-24.323-52.012-50.251zm52.012 34.252c18.886 0 34.251-15.365 34.251-34.251 0-17.432-13.318-34.251-36.012-34.251-18.886 0-34.251 15.365-34.251 34.251 0 17.432 13.318 34.251 36.012 34.251zm248.06-107.659c4.418 0 8-3.582 8-8s-3.582-8-8-8h-60.667c-4.418 0-8 3.582-8 8s3.582 8 8 8zm-103 0h4c4.418 0 8-3.582 8-8s-3.582-8-8-8h-4c-4.418 0-8 3.582-8 8s3.582 8 8 8z" data-original="#000000" class="active-path" data-old_color="#000000" fill="#021a31"/></g> </svg>
